# xmcd
#
# Track frame offsets:
#	150
#	16279
#	36222
#	56430
#	74149
#	94652
#	109975
#	127859
#	143627
#	159679
#	173545
#	190203
#	208062
#	220876
#	238735
#	257957
#	275915
#	294461
#	311428
#	327706
#	343907
#
# Disc length: 4797 seconds
#
# Revision: 0
# Processed by: cddbd v1.5.2PL0 Copyright (c) Steve Scherf et al.
# Submitted via: audiograbber 1.83.01
#
DISCID=4f12bb15
DTITLE=Сборник для любимой женщины - Песни о любви 2
DYEAR=2006
DGENRE=Love Ballads
TTITLE0=Андрей Бандера - Самая желанная
TTITLE1=Трофим - Первая любовь
TTITLE2=Григорий Лепс - Небо
TTITLE3=Стас Михайлов - Всё для тебя
TTITLE4=Алла Пугачёва - Спасибо, любовь
TTITLE5=Владимир Девятов - Лучшая из женщин
TTITLE6=Чай Вдвоём - Прости
TTITLE7=Катя Лель и Андрей Ковалёв - Мужчина и женщина
TTITLE8=Челси - Самая любимая
TTITLE9=Анастасия Стоцкая - Прости
TTITLE10=Виктория Дайнеко - Фильм не о любви
TTITLE11=Варвара и Руслана - Два пути
TTITLE12=Алсу - Двое на качелях
TTITLE13=Лариса Долина и Александр Панайотов - Дай мне руку
TTITLE14=Валерий Меладзе и Ани Лорак - Верни мне мою любовь
TTITLE15=Валерия Лесовская - Только любит сердце
TTITLE16=Татьяна Буланова - Люблю и скучаю
TTITLE17=Диана Гурцкая и Андрей Ковалёв - 9 месяцев
TTITLE18=Алёна Кравец - По правилам любви
TTITLE19=Владимир Цветаев - Останься
TTITLE20=Город 312 - Девочка, которая хотела счастья
EXTD=
EXTT0=
EXTT1=
EXTT2=
EXTT3=
EXTT4=
EXTT5=
EXTT6=
EXTT7=
EXTT8=
EXTT9=
EXTT10=
EXTT11=
EXTT12=
EXTT13=
EXTT14=
EXTT15=
EXTT16=
EXTT17=
EXTT18=
EXTT19=
EXTT20=
PLAYORDER=
